#!OML:ASF H:\ManfredETheater\Project 1\Capture day 1\Session 1\subject.ASF
:FULLY-SPECIFIED
:DEGREES
606
root 4.88591 18.4516 -4.38226 1.12708 1.97497 -11.109
lowerback 2.42594 2.62058 -0.719931
upperback -3.57537 3.59493 2.53166
thorax -5.27102 1.87261 2.77308
lowerneck -12.094 -6.21437 -5.31324
upperneck 25.3185 -9.41989 6.78569
head 10.7094 -4.06364 2.09078
rclavicle -2.08724e-015 2.14687e-014
rhumerus -30.906 -5.46343 -22.8471
rradius 61.0838
rwrist -0.765303
rhand -19.4661 -11.0247
rfingers 7.12502
rthumb 6.85523 -40.8937
lclavicle -2.08724e-015 2.14687e-014
lhumerus -54.5318 22.9851 34.5176
lradius 61.0982
lwrist -4.20926
lhand -21.6854 4.33284
lfingers 7.12502
lthumb 4.71258 34.2604
rfemur -39.1168 -38.5662 -17.7434
rtibia 114.114
rfoot 20.1597 10.4049
rtoes 13.5106
lfemur -5.59679 0.808803 -16.4634
ltibia 24.6327
lfoot -14.6363 0.873893
ltoes 12.9617
607
root 4.8833 18.4399 -4.38804 1.24867 1.97464 -10.8406
lowerback 2.38647 2.57812 -0.903409
upperback -3.61201 3.52028 2.34403
thorax -5.28128 1.8386 2.68728
lowerneck -12.1585 -6.15006 -5.23705
upperneck 25.362 -9.33526 6.74418
head 10.7256 -4.02027 2.07349
rclavicle -3.27995e-015 1.43125e-014
rhumerus -30.9934 -5.44325 -22.6008
rradius 61.0765
rwrist -0.833366
rhand -19.611 -11.0652
rfingers 7.12502
rthumb 6.71531 -40.9387
lclavicle -3.27995e-015 1.43125e-014
lhumerus -54.2132 23.041 35.0452
lradius 60.9952
lwrist -4.22195
lhand -21.6717 4.2846
lfingers 7.12502
lthumb 4.72581 34.2119
rfemur -39.0012 -37.962 -17.1574
rtibia 114.531
rfoot 20.1153 11.1155
rtoes 13.1557
lfemur -5.76476 0.430668 -16.8562
ltibia 24.6587
lfoot -14.5929 1.20711
ltoes 13.3461
608
root 4.88076 18.4265 -4.39503 1.36149 1.95738 -10.5731
lowerback 2.36897 2.53644 -1.07507
upperback -3.64494 3.44751 2.16072
thorax -5.29998 1.80519 2.59837
lowerneck -12.2284 -6.08192 -5.1626
upperneck 25.3971 -9.24231 6.69657
head 10.7391 -3.97399 2.05531
rclavicle 8.24956e-015 -2.70347e-014
rhumerus -31.1039 -5.40506 -22.3748
rradius 61.0869
rwrist -0.90513
rhand -19.7508 -11.1165
rfingers 7.12502
rthumb 6.58044 -40.9942
lclavicle 8.24956e-015 -2.70347e-014
lhumerus -53.8697 23.0922 35.6143
lradius 60.9086
lwrist -4.23775
lhand -21.6666 4.24007
lfingers 7.12502
lthumb 4.7307 34.1673
rfemur -38.983 -37.326 -16.4515
rtibia 114.925
rfoot 20.0553 11.7307
rtoes 12.8797
lfemur -5.93974 0.0476615 -17.2582
ltibia 24.7143
lfoot -14.5774 1.60409
ltoes 13.704
609
root 4.87812 18.4114 -4.40314 1.46716 1.92281 -10.305
lowerback 2.36964 2.49592 -1.24207
upperback -3.67412 3.37668 1.98316
thorax -5.32547 1.77273 2.51198
lowerneck -12.303 -6.00951 -5.0911
upperneck 25.4231 -9.14078 6.64545
head 10.7496 -3.92456 2.03739
rclavicle -9.44227e-015 -1.74931e-014
rhumerus -31.2379 -5.34587 -22.1692
rradius 61.1161
rwrist -0.981012
rhand -19.8855 -11.1791
rfingers 7.12502
rthumb 6.4504 -41.0609
lclavicle -9.44227e-015 -1.74931e-014
lhumerus -53.5037 23.1395 36.2224
lradius 60.839
lwrist -4.2586
lhand -21.67 4.19867
lfingers 7.12502
lthumb 4.7274 34.1259
rfemur -39.0595 -36.6601 -15.6317
rtibia 115.294
rfoot 19.9866 12.2424
rtoes 12.6691
lfemur -6.12559 -0.322558 -17.6645
ltibia 24.8052
lfoot -14.5918 2.04096
ltoes 14.0452
610
root 4.87513 18.3948 -4.41223 1.5675 1.87153 -10.0329
lowerback 2.38367 2.45653 -1.41514
upperback -3.69915 3.30716 1.81211
thorax -5.35525 1.74135 2.43524
lowerneck -12.3814 -5.93258 -5.02208
upperneck 25.4392 -9.03086 6.59249
head 10.7568 -3.87186 2.02028
rclavicle -2.66868e-014 7.95139e-015
rhumerus -31.3951 -5.26662 -21.9846
rradius 61.1636
rwrist -1.05815
rhand -20.0131 -11.2501
rfingers 7.12502
rthumb 6.32715 -41.1356
lclavicle -2.66868e-014 7.95139e-015
lhumerus -53.1162 23.1838 36.8672
lradius 60.7856
lwrist -4.28704
lhand -21.6823 4.16028
lfingers 7.12502
lthumb 4.71553 34.0878
rfemur -39.2257 -35.9661 -14.7076
rtibia 115.636
rfoot 19.9158 12.6462
rtoes 12.5055
lfemur -6.32468 -0.655769 -18.0708
ltibia 24.9333
lfoot -14.6352 2.48261
ltoes 14.3764
611
root 4.87148 18.3772 -4.42212 1.66372 1.80553 -9.75029
lowerback 2.40655 2.41756 -1.60859
upperback -3.71942 3.23723 1.64739
thorax -5.38679 1.71077 2.37626
lowerneck -12.4615 -5.8508 -4.95462
upperneck 25.4443 -8.91306 6.54034
head 10.76 -3.8158 2.00475
rclavicle 2.55935e-014 -1.51076e-014
rhumerus -31.5742 -5.17241 -21.8234
rradius 61.2266
rwrist -1.13096
rhand -20.1293 -11.3231
rfingers 7.12502
rthumb 6.21501 -41.2119
lclavicle 2.55935e-014 -1.51076e-014
lhumerus -52.7079 23.2246 37.5464
lradius 60.747
lwrist -4.32479
lhand -21.7049 4.12595
lfingers 7.12502
lthumb 4.69376 34.054
rfemur -39.4741 -35.2456 -13.6942
rtibia 115.949
rfoot 19.8486 12.9438
rtoes 12.3642
lfemur -6.53715 -0.924666 -18.4754
ltibia 25.0963
lfoot -14.7043 2.8865
ltoes 14.6989
612
root 4.86682 18.3589 -4.43267 1.7561 1.72892 -9.4498
lowerback 2.43506 2.37753 -1.83729
upperback -3.73417 3.16404 1.48788
thorax -5.41801 1.68013 2.3426
lowerneck -12.541 -5.7641 -4.88696
upperneck 25.4375 -8.78843 6.49158
head 10.7584 -3.75648 1.99135
rclavicle 8.99501e-015 3.18055e-015
rhumerus -31.7741 -5.0715 -21.6891
rradius 61.3013
rwrist -1.1936
rhand -20.2277 -11.3913
rfingers 7.12502
rthumb 6.12002 -41.2829
lclavicle 8.99501e-015 3.18055e-015
lhumerus -52.2783 23.2605 38.257
lradius 60.7202
lwrist -4.37327
lhand -21.74 4.09769
lfingers 7.12502
lthumb 4.65987 34.0264
rfemur -39.7942 -34.5015 -12.6102
rtibia 116.228
rfoot 19.7895 13.1413
rtoes 12.2182
lfemur -6.76111 -1.10409 -18.8784
ltibia 25.2884
lfoot -14.7933 3.2092
ltoes 15.0035
613
root 4.86079 18.3404 -4.4438 1.84373 1.64773 -9.12487
lowerback 2.46812 2.33422 -2.11365
upperback -3.74277 3.08386 1.33179
thorax -5.4479 1.64804 2.33969
lowerneck -12.6172 -5.67256 -4.81751
upperneck 25.4185 -8.65861 6.44983
head 10.7518 -3.69414 1.98095
rclavicle 3.32964e-015 6.36111e-015
rhumerus -31.9942 -4.97429 -21.5869
rradius 61.3831
rwrist -1.24093
rhand -20.3023 -11.4474
rfingers 7.12502
rthumb 6.04793 -41.3411
lclavicle 3.32964e-015 6.36111e-015
lhumerus -51.8264 23.2889 38.9955
lradius 60.7012
lwrist -4.43222
lhand -21.7897 4.07861
lfingers 7.12502
lthumb 4.61186 34.0084
rfemur -40.1742 -33.7377 -11.4748
rtibia 116.47
rfoot 19.7436 13.2496
rtoes 12.0506
lfemur -6.99322 -1.17544 -19.2803
ltibia 25.502
lfoot -14.8953 3.413
ltoes 15.2761
614
root 4.8531 18.322 -4.45547 1.9243 1.57124 -8.77122
lowerback 2.50688 2.28451 -2.44461
upperback -3.74446 2.99195 1.17678
thorax -5.47607 1.61236 2.36934
lowerneck -12.6881 -5.5767 -4.7456
upperneck 25.388 -8.52593 6.41965
head 10.7403 -3.62929 1.97478
rclavicle -2.67365e-014 -7.95139e-016
rhumerus -32.235 -4.89162 -21.5233
rradius 61.4679
rwrist -1.2714
rhand -20.3485 -11.4875
rfingers 7.12502
rthumb 6.00334 -41.3825
lclavicle -2.67365e-014 -7.95139e-016
lhumerus -51.3497 23.3064 39.7575
lradius 60.6851
lwrist -4.50095
lhand -21.8551 4.07044
lfingers 7.12502
lthumb 4.54872 34.0016
rfemur -40.5992 -32.9618 -10.3075
rtibia 116.67
rfoot 19.7149 13.2838
rtoes 11.85
lfemur -7.22888 -1.13115 -19.682
ltibia 25.7292
lfoot -15.0027 3.47143
ltoes 15.5016
615
root 4.84356 18.304 -4.46766 1.99468 1.51124 -8.3871
lowerback 2.55412 2.22467 -2.83087
upperback -3.73855 2.88296 1.02
thorax -5.50263 1.57037 2.42937
lowerneck -12.7521 -5.47755 -4.67126
upperneck 25.3474 -8.39338 6.406
head 10.7247 -3.56273 1.97424
rclavicle 3.2054e-014 -2.06736e-014
rhumerus -32.4986 -4.83296 -21.5048
rradius 61.5527
rwrist -1.28734
rhand -20.3636 -11.5112
rfingers 7.12502
rthumb 5.98879 -41.4066
lclavicle 3.2054e-014 -2.06736e-014
lhumerus -50.8451 23.3094 40.5377
lradius 60.6661
lwrist -4.57848
lhand -21.9351 4.0739
lfingers 7.12502
lthumb 4.47144 34.0067
rfemur -41.0534 -32.1858 -9.12704
rtibia 116.825
rfoot 19.7071 13.2623
rtoes 11.6184
lfemur -7.46324 -0.975725 -20.0845
ltibia 25.9637
lfoot -15.109 3.37268
ltoes 15.6732
